<?xml version="1.0" encoding="utf-8"?>
<!-- Generator: Adobe Illustrator 25.2.1, SVG Export Plug-In . SVG Version: 6.00 Build 0)  -->
<svg version="1.1" id="Layer_1" xmlns="http://www.w3.org/2000/svg" xmlns:xlink="http://www.w3.org/1999/xlink" x="0px" y="0px"
	 viewBox="0 0 397.6 571.4" style="enable-background:new 0 0 397.6 571.4;" xml:space="preserve">
<style type="text/css">
	.st0{fill:#131722;}
	.st1{fill:url(#SVGID_1_);}
	.st2{fill:url(#SVGID_2_);}
	.st3{fill:url(#SVGID_3_);}
	.st4{fill:url(#SVGID_4_);}
	.st5{fill:url(#SVGID_5_);}
	.st6{fill:url(#SVGID_6_);}
	.st7{fill:url(#SVGID_7_);}
	.st8{fill:url(#SVGID_8_);}
	.st9{fill:url(#SVGID_9_);}
	.st10{fill:url(#SVGID_10_);}
	.st11{fill:url(#SVGID_11_);}
	.st12{fill:url(#SVGID_12_);}
	.st13{fill:url(#SVGID_13_);}
	.st14{fill:url(#SVGID_14_);}
	.st15{fill:url(#SVGID_15_);}
	.st16{fill:url(#SVGID_16_);}
	.st17{fill:url(#SVGID_17_);}
	.st18{fill:url(#SVGID_18_);}
	.st19{fill:url(#SVGID_19_);}
	.st20{fill:url(#SVGID_20_);}
	.st21{fill:url(#SVGID_21_);}
	.st22{fill:url(#SVGID_22_);}
	.st23{fill:url(#SVGID_23_);}
	.st24{fill:url(#SVGID_24_);}
	.st25{fill:url(#SVGID_25_);}
	.st26{fill:url(#SVGID_26_);}
	.st27{fill:url(#SVGID_27_);}
	.st28{fill:url(#SVGID_28_);}
	.st29{fill:url(#SVGID_29_);}
	.st30{fill:url(#SVGID_30_);}
	.st31{fill:url(#SVGID_31_);}
	.st32{fill:url(#SVGID_32_);}
	.st33{fill:url(#SVGID_33_);}
	.st34{fill:url(#SVGID_34_);}
	.st35{fill:url(#SVGID_35_);}
	.st36{fill:url(#SVGID_36_);}
	.st37{fill:url(#SVGID_37_);}
	.st38{fill:url(#SVGID_38_);}
	.st39{fill:url(#SVGID_39_);}
	.st40{fill:url(#SVGID_40_);}
	.st41{fill:url(#SVGID_41_);}
	.st42{fill:url(#SVGID_42_);}
	.st43{fill:#FFFFFF;}
	.st44{fill:url(#SVGID_43_);}
	.st45{fill:url(#SVGID_44_);}
	.st46{fill:url(#SVGID_45_);}
	.st47{fill:url(#SVGID_46_);}
	.st48{fill:url(#SVGID_47_);}
	.st49{fill:url(#SVGID_48_);}
	.st50{fill:url(#SVGID_49_);}
	.st51{fill:url(#SVGID_50_);}
	.st52{fill:url(#SVGID_51_);}
	.st53{fill:url(#SVGID_52_);}
	.st54{fill:url(#SVGID_53_);}
	.st55{fill:url(#SVGID_54_);}
	.st56{fill:url(#SVGID_55_);}
	.st57{fill:url(#SVGID_56_);}
	.st58{fill:url(#SVGID_57_);}
	.st59{fill:url(#SVGID_58_);}
	.st60{fill:url(#SVGID_59_);}
	.st61{fill:url(#SVGID_60_);}
	.st62{fill:url(#SVGID_61_);}
	.st63{fill:url(#SVGID_62_);}
	.st64{fill:url(#SVGID_63_);}
	.st65{fill:url(#SVGID_64_);}
	.st66{fill:url(#SVGID_65_);}
	.st67{fill:url(#SVGID_66_);}
	.st68{fill:url(#SVGID_67_);}
	.st69{fill:url(#SVGID_68_);}
	.st70{fill:url(#SVGID_69_);}
	.st71{fill:url(#SVGID_70_);}
	.st72{fill:url(#SVGID_71_);}
	.st73{fill:url(#SVGID_72_);}
	.st74{fill:url(#SVGID_73_);}
	.st75{fill:url(#SVGID_74_);}
	.st76{fill:url(#SVGID_75_);}
	.st77{fill:url(#SVGID_76_);}
	.st78{fill:url(#SVGID_77_);}
	.st79{fill:url(#SVGID_78_);}
	.st80{fill:url(#SVGID_79_);}
	.st81{fill:url(#SVGID_80_);}
	.st82{fill:url(#SVGID_81_);}
	.st83{fill:url(#SVGID_82_);}
	.st84{fill:url(#SVGID_83_);}
	.st85{fill:url(#SVGID_84_);}
	.st86{fill:url(#SVGID_85_);}
	.st87{fill:url(#SVGID_86_);}
	.st88{fill:url(#SVGID_87_);}
	.st89{fill:url(#SVGID_88_);}
	.st90{fill:url(#SVGID_89_);}
	.st91{fill:url(#SVGID_90_);}
	.st92{fill:url(#SVGID_91_);}
	.st93{fill:url(#SVGID_92_);}
	.st94{fill:url(#SVGID_93_);}
	.st95{fill:url(#SVGID_94_);}
	.st96{fill:url(#SVGID_95_);}
	.st97{fill:url(#SVGID_96_);}
	.st98{fill:url(#SVGID_97_);}
	.st99{fill:url(#SVGID_98_);}
	.st100{fill:url(#SVGID_99_);}
	.st101{fill:url(#SVGID_100_);}
	.st102{fill:url(#SVGID_101_);}
	.st103{fill:url(#SVGID_102_);}
	.st104{fill:url(#SVGID_103_);}
	.st105{fill:url(#SVGID_104_);}
	.st106{fill:url(#SVGID_105_);}
	.st107{fill:url(#SVGID_106_);}
	.st108{fill:url(#SVGID_107_);}
	.st109{fill:url(#SVGID_108_);}
	.st110{fill:url(#SVGID_109_);}
	.st111{fill:url(#SVGID_110_);}
	.st112{fill:url(#SVGID_111_);}
	.st113{fill:url(#SVGID_112_);}
	.st114{fill:url(#SVGID_113_);}
	.st115{fill:url(#SVGID_114_);}
	.st116{fill:url(#SVGID_115_);}
	.st117{fill:url(#SVGID_116_);}
	.st118{fill:url(#SVGID_117_);}
	.st119{fill:url(#SVGID_118_);}
	.st120{fill:url(#SVGID_119_);}
	.st121{fill:url(#SVGID_120_);}
	.st122{fill:url(#SVGID_121_);}
	.st123{fill:url(#SVGID_122_);}
	.st124{fill:url(#SVGID_123_);}
	.st125{fill:url(#SVGID_124_);}
	.st126{fill:url(#SVGID_125_);}
	.st127{fill:url(#SVGID_126_);}
	.st128{fill:url(#SVGID_127_);}
	.st129{fill:url(#SVGID_128_);}
	.st130{fill:url(#SVGID_129_);}
	.st131{fill:url(#SVGID_130_);}
	.st132{fill:url(#SVGID_131_);}
	.st133{fill:url(#SVGID_132_);}
	.st134{fill:url(#SVGID_133_);}
	.st135{fill:url(#SVGID_134_);}
	.st136{fill:url(#SVGID_135_);}
	.st137{fill:url(#SVGID_136_);}
	.st138{fill:url(#SVGID_137_);}
	.st139{fill:url(#SVGID_138_);}
	.st140{fill:url(#SVGID_139_);}
	.st141{fill:url(#SVGID_140_);}
	.st142{fill:url(#SVGID_141_);}
	.st143{fill:url(#SVGID_142_);}
	.st144{fill:url(#SVGID_143_);}
	.st145{fill:url(#SVGID_144_);}
	.st146{fill:url(#SVGID_145_);}
	.st147{fill:url(#SVGID_146_);}
	.st148{fill:url(#SVGID_147_);}
	.st149{fill:url(#SVGID_148_);}
</style>
<g>
	<g>
		<path class="st43" d="M104.5,542.6H46.7l-11,26.7H6.1l55.5-124.5h28.5l55.7,124.5h-30.2L104.5,542.6z M95.4,520.7l-19.7-47.7
			l-19.7,47.7H95.4z"/>
		<path class="st43" d="M271.6,444.8l-53.9,124.5h-28.5l-53.7-124.5h31.1l37.9,88.9l38.4-88.9H271.6z"/>
		<path class="st43" d="M305.7,563.2c-10.3-5.5-18.3-13.2-24.2-22.9c-5.9-9.8-8.8-20.8-8.8-33.2c0-12.3,2.9-23.4,8.8-33.2
			c5.9-9.8,13.9-17.4,24.2-22.9c10.3-5.5,21.8-8.3,34.6-8.3c10.8,0,20.5,1.9,29.3,5.7c8.7,3.8,16,9.2,22,16.4L373,481.8
			c-8.4-9.7-18.9-14.6-31.3-14.6c-7.7,0-14.6,1.7-20.6,5.1s-10.8,8.1-14.1,14.1c-3.4,6-5.1,12.9-5.1,20.6c0,7.7,1.7,14.6,5.1,20.6
			c3.4,6,8.1,10.8,14.1,14.1s12.9,5.1,20.6,5.1c12.4,0,22.9-4.9,31.3-14.8l18.5,17.1c-5.9,7.2-13.3,12.7-22.1,16.5
			c-8.8,3.8-18.6,5.7-29.3,5.7C327.4,571.4,316,568.7,305.7,563.2z"/>
	</g>
	<g>
		<radialGradient id="SVGID_1_" cx="197.583" cy="233.5643" r="45.1616" gradientUnits="userSpaceOnUse">
			<stop  offset="0" style="stop-color:#A7A9AC"/>
			<stop  offset="1" style="stop-color:#FFFFFF"/>
		</radialGradient>
		<path class="st1" d="M199.1,265.9c0,0-35.9-14-35.9-14c6.9,31.5,35.9,28.3,35.9,28.3c0,0,29,3.1,35.9-28.3L199.1,265.9z"/>
		<radialGradient id="SVGID_2_" cx="158.0692" cy="143.7601" r="45.9134" gradientUnits="userSpaceOnUse">
			<stop  offset="0" style="stop-color:#A7A9AC"/>
			<stop  offset="1" style="stop-color:#FFFFFF"/>
		</radialGradient>
		<path class="st2" d="M141.1,178.1c1.5-1.8,3.1-3.5,4.6-5.1c0.4-0.4,0.8-0.8,1.2-1.3c0,0,0.1-0.1,0.1-0.1
			C132.9,165,123,149.1,123,135c0-21.7,18.1-39.4,39.4-41l0,0c0,0-26.1-2.7-43,14.4c-1.6,1.6-3,3.3-4.4,5.1c0,0,0,0.1-0.1,0.1
			c-6.6,8.8-10.5,19.8-10.5,31.7c0,20.5,11.6,38.2,28.6,47C134.8,187.1,137.6,182.3,141.1,178.1z"/>
		<path class="st43" d="M184.1,201.6L184.1,201.6c-0.8-1.5-2.3-2.5-4-2.5c-8,0-14.5-6.4-14.5-14.4v-17c-2.9,4.7-6.5,8.8-9.9,12.3
			c-0.4,0.4-0.8,0.9-1.2,1.3c-1.5,1.5-2.8,3-4.1,4.5c-3.1,3.7-5.4,8-6.8,12.3c0,0,0,0,0,0.1c0,0.1-0.1,0.2-0.1,0.3
			c-0.4,1.5-1.1,4.5-1.3,9c0,0.3,0,0.5,0,0.8c5,2.2,12.8,4.6,22.5,4.1c1.4-0.1,2.5,1,2.6,2.3c0.1,1.4-1,2.5-2.3,2.6
			c-1,0-1.9,0.1-2.9,0.1c-8.2,0-15-1.8-20-3.8c0.1,3,0.4,6.3,1,10.1c5.3,0.6,13.1,1,21.5,0.1c1.4-0.1,2.6,0.8,2.7,2.2
			c0.1,1.4-0.8,2.6-2.2,2.7c-3.8,0.4-7.4,0.6-10.7,0.6c-3.9,0-7.4-0.2-10.4-0.5c0.6,3.1,1.5,6.4,2.5,9.9c3.6,1,7.3,1.5,11.2,1.5
			c16.8,0,31.4-9.8,38.4-24C191.1,212.2,187,207.2,184.1,201.6z"/>
		<radialGradient id="SVGID_3_" cx="239.1495" cy="144.2733" r="46.1308" gradientUnits="userSpaceOnUse">
			<stop  offset="0" style="stop-color:#A7A9AC"/>
			<stop  offset="1" style="stop-color:#FFFFFF"/>
		</radialGradient>
		<path class="st3" d="M257,178.1c-1.5-1.8-3.1-3.5-4.6-5.1c-0.4-0.4-0.8-0.8-1.2-1.3c0,0-0.1-0.1-0.1-0.1
			c14.2-6.6,24.1-22.5,24.1-36.7c0-21.7-18.1-39.4-39.4-41l0,0c0,0,26.1-2.7,43,14.4c1.6,1.6,3,3.3,4.4,5.1c0,0,0,0.1,0.1,0.1
			c6.6,8.8,10.5,19.8,10.5,31.7c0,20.5-11.6,38.2-28.6,47C263.3,187.1,260.5,182.3,257,178.1z"/>
		<path class="st43" d="M214,201.6L214,201.6c0.8-1.5,2.3-2.5,4-2.5c8,0,14.5-6.4,14.5-14.4v-17c2.9,4.7,6.5,8.8,9.9,12.3
			c0.4,0.4,0.8,0.9,1.2,1.3c1.5,1.5,2.8,3,4.1,4.5c3.1,3.7,5.4,8,6.8,12.3c0,0,0,0,0,0.1c0,0.1,0.1,0.2,0.1,0.3
			c0.4,1.5,1.1,4.5,1.3,9c0,0.3,0,0.5,0,0.8c-5,2.2-12.8,4.6-22.5,4.1c-1.4-0.1-2.5,1-2.6,2.3c-0.1,1.4,1,2.5,2.3,2.6
			c1,0,1.9,0.1,2.9,0.1c8.2,0,15-1.8,20-3.8c-0.1,3-0.4,6.3-1,10.1c-5.3,0.6-13.1,1-21.5,0.1c-1.4-0.1-2.6,0.8-2.7,2.2
			c-0.1,1.4,0.8,2.6,2.2,2.7c3.8,0.4,7.4,0.6,10.7,0.6c3.9,0,7.4-0.2,10.4-0.5c-0.6,3.1-1.5,6.4-2.5,9.9c-3.6,1-7.3,1.5-11.2,1.5
			c-16.8,0-31.4-9.8-38.4-24C207,212.2,211.1,207.2,214,201.6z"/>
		<linearGradient id="SVGID_4_" gradientUnits="userSpaceOnUse" x1="107.8534" y1="189.9602" x2="140.9179" y2="273.6335">
			<stop  offset="0" style="stop-color:#58341C"/>
			<stop  offset="5.383855e-02" style="stop-color:#6B482D"/>
			<stop  offset="0.1667" style="stop-color:#947452"/>
			<stop  offset="0.2731" style="stop-color:#BBA075"/>
			<stop  offset="0.3702" style="stop-color:#DBC593"/>
			<stop  offset="0.4548" style="stop-color:#F0DEA7"/>
			<stop  offset="0.5174" style="stop-color:#FBEAB1"/>
			<stop  offset="0.5828" style="stop-color:#F4E1A9"/>
			<stop  offset="0.6736" style="stop-color:#E5CC95"/>
			<stop  offset="0.7794" style="stop-color:#CFAD79"/>
			<stop  offset="0.8955" style="stop-color:#B58858"/>
			<stop  offset="1" style="stop-color:#9D6739"/>
		</linearGradient>
		<path class="st4" d="M103,178c-18.8,45.7,37.7,86.5,46.1,95.3c-2.9-5.5-23.9-29.7-19.6-67.7C109.4,196.2,103.3,178.4,103,178z"/>
		<linearGradient id="SVGID_5_" gradientUnits="userSpaceOnUse" x1="291.7539" y1="183.3926" x2="260.0391" y2="272.4642">
			<stop  offset="0" style="stop-color:#58341C"/>
			<stop  offset="5.383855e-02" style="stop-color:#6B482D"/>
			<stop  offset="0.1667" style="stop-color:#947452"/>
			<stop  offset="0.2731" style="stop-color:#BBA075"/>
			<stop  offset="0.3702" style="stop-color:#DBC593"/>
			<stop  offset="0.4548" style="stop-color:#F0DEA7"/>
			<stop  offset="0.5174" style="stop-color:#FBEAB1"/>
			<stop  offset="0.5828" style="stop-color:#F4E1A9"/>
			<stop  offset="0.6736" style="stop-color:#E5CC95"/>
			<stop  offset="0.7794" style="stop-color:#CFAD79"/>
			<stop  offset="0.8955" style="stop-color:#B58858"/>
			<stop  offset="1" style="stop-color:#9D6739"/>
		</linearGradient>
		<path class="st5" d="M295.1,178c18.8,45.7-37.7,86.5-46.1,95.3c2.9-5.5,23.9-29.7,19.6-67.7C288.7,196.2,294.8,178.4,295.1,178z"
			/>
		<linearGradient id="SVGID_6_" gradientUnits="userSpaceOnUse" x1="68.3077" y1="24.4354" x2="215.7458" y2="24.4354">
			<stop  offset="0" style="stop-color:#58341C"/>
			<stop  offset="5.383855e-02" style="stop-color:#6B482D"/>
			<stop  offset="0.1667" style="stop-color:#947452"/>
			<stop  offset="0.2731" style="stop-color:#BBA075"/>
			<stop  offset="0.3702" style="stop-color:#DBC593"/>
			<stop  offset="0.4548" style="stop-color:#F0DEA7"/>
			<stop  offset="0.5174" style="stop-color:#FBEAB1"/>
			<stop  offset="0.5828" style="stop-color:#F4E1A9"/>
			<stop  offset="0.6736" style="stop-color:#E5CC95"/>
			<stop  offset="0.7794" style="stop-color:#CFAD79"/>
			<stop  offset="0.8955" style="stop-color:#B58858"/>
			<stop  offset="1" style="stop-color:#9D6739"/>
		</linearGradient>
		<path class="st6" d="M199,0c-23.1,0-45.7,3.9-67.2,11.6C111,19.1,91.7,29.9,74.4,43.9l-6.1,4.9l7.8,0.1c0.3,0,0.6,0,1,0
			c5.2,0,17.3-0.5,34-4.1c7.7-1.7,16.5-6.5,26.7-12c19.6-10.7,44.5-25.8,77.9-32l0,0C210.3,0.2,204.7,0,199,0z"/>
		<path class="st43" d="M279.5,16.9c-9.1-4-18.5-7.4-28-10l-0.4-0.1l-0.5,0c-45.8,1.1-66.6,19-99.3,45.7
			c21.6-11,86.1-38.1,135.5-32.4L279.5,16.9z"/>
		<linearGradient id="SVGID_7_" gradientUnits="userSpaceOnUse" x1="192.0339" y1="50.3457" x2="328.8625" y2="50.3457">
			<stop  offset="0" style="stop-color:#58341C"/>
			<stop  offset="5.383855e-02" style="stop-color:#6B482D"/>
			<stop  offset="0.1667" style="stop-color:#947452"/>
			<stop  offset="0.2731" style="stop-color:#BBA075"/>
			<stop  offset="0.3702" style="stop-color:#DBC593"/>
			<stop  offset="0.4548" style="stop-color:#F0DEA7"/>
			<stop  offset="0.5174" style="stop-color:#FBEAB1"/>
			<stop  offset="0.5828" style="stop-color:#F4E1A9"/>
			<stop  offset="0.6736" style="stop-color:#E5CC95"/>
			<stop  offset="0.7794" style="stop-color:#CFAD79"/>
			<stop  offset="0.8955" style="stop-color:#B58858"/>
			<stop  offset="1" style="stop-color:#9D6739"/>
		</linearGradient>
		<path class="st7" d="M320.3,41.2c-5.5-4.2-11.2-8.2-17.1-11.8c-1.7-1-3.4-1.9-5.2-2.7l0,0c-45.6-1.6-71,19-105.9,47.5
			c12-6,74.5-35.6,126.1-28l10.7,1.6L320.3,41.2z"/>
		<linearGradient id="SVGID_8_" gradientUnits="userSpaceOnUse" x1="179.9887" y1="309.9865" x2="336.8154" y2="309.9865">
			<stop  offset="0" style="stop-color:#58341C"/>
			<stop  offset="5.383855e-02" style="stop-color:#6B482D"/>
			<stop  offset="0.1667" style="stop-color:#947452"/>
			<stop  offset="0.2731" style="stop-color:#BBA075"/>
			<stop  offset="0.3702" style="stop-color:#DBC593"/>
			<stop  offset="0.4548" style="stop-color:#F0DEA7"/>
			<stop  offset="0.5174" style="stop-color:#FBEAB1"/>
			<stop  offset="0.5828" style="stop-color:#F4E1A9"/>
			<stop  offset="0.6736" style="stop-color:#E5CC95"/>
			<stop  offset="0.7794" style="stop-color:#CFAD79"/>
			<stop  offset="0.8955" style="stop-color:#B58858"/>
			<stop  offset="1" style="stop-color:#9D6739"/>
		</linearGradient>
		<path class="st8" d="M332.5,232.1l-3.6-9.2l-1.8,9.7c-12.6,67-56,87.3-94.2,105.2c-29.4,13.8-56.5,31-52.4,59.3l0.8-0.8
			c13.7-13.5,30.6-23.5,49-29.1c1.1-0.4,27.7-9,54.1-27.3c34.8-24.1,52.5-52.6,52.5-84.7C336.8,247.3,335.4,239.6,332.5,232.1z"/>
		<path class="st43" d="M341.4,179.9c-16.9-18-37.1-24-37.8-24.4c11.5,12.2,12,28.5,11.8,33.2l0,1.4l1.1,0.9
			c5.4,4.3,18.9,16.4,26.6,35.3c4,9.1,6,18.7,6,28.5c0,10.1-1.6,20-4.9,29.5c-8,24.7-26,46.8-53.4,65.7
			c-28.2,19.5-55.8,28.3-57,28.7l-0.1,0c-4.3,1.3-8.6,2.9-12.8,4.8c-5.3,2.4-10.2,5.6-14.6,9.6l-5.9,5.3l7.9-0.4
			c47.3-2.2,92.3-21.3,126.9-53.7c24.4-22.9,38.5-53.5,39.7-86.1c0-0.8,0.1-1.6,0.1-2.4v0C375.6,230.1,363.9,203.9,341.4,179.9z"/>
		<path class="st43" d="M185.1,308.4c-10.4-5.9-105.4-61-98.6-111.3c-3.2,5.1-19.3,32,1.7,63.8c20.7,31.4,68.3,59.4,82.4,67.2
			l2.3,1.3l1.4-2.2c3.4-5.1,7.3-10,11.4-14.5l2.4-2.6L185.1,308.4z"/>
		<linearGradient id="SVGID_9_" gradientUnits="userSpaceOnUse" x1="182.7156" y1="354.9668" x2="48.6412" y2="252.4392">
			<stop  offset="0" style="stop-color:#58341C"/>
			<stop  offset="5.383855e-02" style="stop-color:#6B482D"/>
			<stop  offset="0.1667" style="stop-color:#947452"/>
			<stop  offset="0.2731" style="stop-color:#BBA075"/>
			<stop  offset="0.3702" style="stop-color:#DBC593"/>
			<stop  offset="0.4548" style="stop-color:#F0DEA7"/>
			<stop  offset="0.5174" style="stop-color:#FBEAB1"/>
			<stop  offset="0.5828" style="stop-color:#F4E1A9"/>
			<stop  offset="0.6736" style="stop-color:#E5CC95"/>
			<stop  offset="0.7794" style="stop-color:#CFAD79"/>
			<stop  offset="0.8955" style="stop-color:#B58858"/>
			<stop  offset="1" style="stop-color:#9D6739"/>
		</linearGradient>
		<path class="st9" d="M78.2,267.5c-5.4-8.2-9.2-16.8-11.2-25.6l-3-13.1L61.5,242c-0.7,3.8-1.1,7.6-1.1,11.4
			c0,63.2,73.1,97.1,95.5,105.9l2.8,1.1l0.9-2.9c1.7-5.2,3.7-10.4,6.1-15.4l1.2-2.4l-2.3-1.3C150,330.5,100.6,301.4,78.2,267.5z"/>
		<path class="st43" d="M94.5,338.1c-1.2-1-2.5-2-3.9-3.2c-16.6-13.8-28.4-29.3-35.1-46.1c-4.6-11.3-7-23.2-7-35.3
			c0-37.5,27.5-59.7,33-63.8l1.3-0.9c-2.8-21,6.7-36.6,6.7-36.6l-3.6,2.5C70.9,165,22,203.4,23,255.6c0,0.8,0,1.6,0.1,2.4
			c1.2,32.9,15.7,63.8,40.8,87c24.5,22.7,54.5,39,86.8,47.1l3.4,0.8l0.1-3.5c0.2-5,0.7-10.1,1.5-15l0.4-2.3l-2.2-0.8
			C143.7,367.5,117.6,356.6,94.5,338.1z"/>
		<g>
			<linearGradient id="SVGID_10_" gradientUnits="userSpaceOnUse" x1="109.974" y1="110.8481" x2="-17.5603" y2="210.7163">
				<stop  offset="0" style="stop-color:#58341C"/>
				<stop  offset="5.383855e-02" style="stop-color:#6B482D"/>
				<stop  offset="0.1667" style="stop-color:#947452"/>
				<stop  offset="0.2731" style="stop-color:#BBA075"/>
				<stop  offset="0.3702" style="stop-color:#DBC593"/>
				<stop  offset="0.4548" style="stop-color:#F0DEA7"/>
				<stop  offset="0.5174" style="stop-color:#FBEAB1"/>
				<stop  offset="0.5828" style="stop-color:#F4E1A9"/>
				<stop  offset="0.6736" style="stop-color:#E5CC95"/>
				<stop  offset="0.7794" style="stop-color:#CFAD79"/>
				<stop  offset="0.8955" style="stop-color:#B58858"/>
				<stop  offset="1" style="stop-color:#9D6739"/>
			</linearGradient>
			<path class="st10" d="M97.4,104.7c-15.2,10.5-29.5,23.9-42.7,39.8c-7,8.5-13.2,18.1-18.2,28.6l-8.8,18.5c0,0,36.2-40.8,60.4-53.6
				l1.1-0.7l0.2-1.2c1.5-9.5,5.2-18.3,11-26.1l12.4-15.8L97.4,104.7z"/>
			<linearGradient id="SVGID_11_" gradientUnits="userSpaceOnUse" x1="113.5701" y1="115.4403" x2="-13.9643" y2="215.3085">
				<stop  offset="0" style="stop-color:#58341C"/>
				<stop  offset="5.383855e-02" style="stop-color:#6B482D"/>
				<stop  offset="0.1667" style="stop-color:#947452"/>
				<stop  offset="0.2731" style="stop-color:#BBA075"/>
				<stop  offset="0.3702" style="stop-color:#DBC593"/>
				<stop  offset="0.4548" style="stop-color:#F0DEA7"/>
				<stop  offset="0.5174" style="stop-color:#FBEAB1"/>
				<stop  offset="0.5828" style="stop-color:#F4E1A9"/>
				<stop  offset="0.6736" style="stop-color:#E5CC95"/>
				<stop  offset="0.7794" style="stop-color:#CFAD79"/>
				<stop  offset="0.8955" style="stop-color:#B58858"/>
				<stop  offset="1" style="stop-color:#9D6739"/>
			</linearGradient>
			<path class="st11" d="M94.2,92.4l6.4-4.2c-6.8-0.6-13.7,0-20.3,1.9c-18.7,5.4-41.2,16.8-59,40.7c-6.8,9.1-12.1,19.4-15.8,30.8
				c-4.4,13.5-6.2,27.8-5.4,42.7c0.6,10.7,1.5,25,2.9,32.4l4.5,23.9l1-24.3c0.7-17.4,5.8-61.8,36.8-99.3
				C60.5,118.7,76.9,103.7,94.2,92.4z"/>
		</g>
		<g>
			<linearGradient id="SVGID_12_" gradientUnits="userSpaceOnUse" x1="277.6141" y1="99.0975" x2="420.6685" y2="219.884">
				<stop  offset="0" style="stop-color:#58341C"/>
				<stop  offset="5.383855e-02" style="stop-color:#6B482D"/>
				<stop  offset="0.1667" style="stop-color:#947452"/>
				<stop  offset="0.2731" style="stop-color:#BBA075"/>
				<stop  offset="0.3702" style="stop-color:#DBC593"/>
				<stop  offset="0.4548" style="stop-color:#F0DEA7"/>
				<stop  offset="0.5174" style="stop-color:#FBEAB1"/>
				<stop  offset="0.5828" style="stop-color:#F4E1A9"/>
				<stop  offset="0.6736" style="stop-color:#E5CC95"/>
				<stop  offset="0.7794" style="stop-color:#CFAD79"/>
				<stop  offset="0.8955" style="stop-color:#B58858"/>
				<stop  offset="1" style="stop-color:#9D6739"/>
			</linearGradient>
			<path class="st12" d="M342.9,144.5c-13.2-15.9-27.6-29.3-42.7-39.8l-15.3-10.6l12.4,15.8c5.8,7.8,9.5,16.6,11,26.1l0.2,1.2
				l1.1,0.7c24.3,12.9,60.4,53.6,60.4,53.6l-8.8-18.5C356.1,162.7,350,153.1,342.9,144.5z"/>
			<linearGradient id="SVGID_13_" gradientUnits="userSpaceOnUse" x1="274.9503" y1="102.2524" x2="418.0047" y2="223.0389">
				<stop  offset="0" style="stop-color:#58341C"/>
				<stop  offset="5.383855e-02" style="stop-color:#6B482D"/>
				<stop  offset="0.1667" style="stop-color:#947452"/>
				<stop  offset="0.2731" style="stop-color:#BBA075"/>
				<stop  offset="0.3702" style="stop-color:#DBC593"/>
				<stop  offset="0.4548" style="stop-color:#F0DEA7"/>
				<stop  offset="0.5174" style="stop-color:#FBEAB1"/>
				<stop  offset="0.5828" style="stop-color:#F4E1A9"/>
				<stop  offset="0.6736" style="stop-color:#E5CC95"/>
				<stop  offset="0.7794" style="stop-color:#CFAD79"/>
				<stop  offset="0.8955" style="stop-color:#B58858"/>
				<stop  offset="1" style="stop-color:#9D6739"/>
			</linearGradient>
			<path class="st13" d="M392,161.5c-3.7-11.4-9-21.7-15.8-30.8c-17.8-23.9-40.3-35.3-59-40.7c-6.6-1.9-13.5-2.5-20.3-1.9h0l6.4,4.2
				c17.3,11.4,33.7,26.4,48.8,44.5c31,37.4,36.1,81.9,36.8,99.3l1,24.3l4.5-23.9c1.4-7.3,2.3-21.7,2.9-32.4
				C398.2,189.3,396.4,175,392,161.5z"/>
		</g>
		<path class="st43" d="M310.3,198.7c-0.4,10.9-4,23.4-12.7,39.1c-19.5,35-48.5,49.6-63.5,58.9c-20.7,12.9-40.2,25-49.6,51.3
			l-3.8,10.7l8.4-7.6c11.9-10.9,28.7-19.4,46.5-28.4c21.4-10.9,43.5-22.1,57-38.1c5.6-6.7,10.7-15,14.8-24.1
			C316.1,240.8,317,218.8,310.3,198.7z"/>
		<path class="st43" d="M235,251.8c-14.2-1.4-27-8.5-35.9-18.7c-8.9,10.3-21.7,17.3-35.9,18.7c9.4,8.7,22.1,14,35.9,14
			C212.9,265.9,225.5,260.5,235,251.8z"/>
		<path class="st43" d="M368.5,93.2c0,0-0.1-0.1-0.1-0.1c-8.9-14.3-22.3-25.3-38.1-31.1c-12.3-4.6-27.9-7.3-47.2-6
			c-38.8,2.6-64.4,27-79,47.1c-0.6,0.8-1.3,1.7-1.9,2.5c-1.1,1.5-2.1,3-3.2,4.6c-1.1-1.6-2.1-3.1-3.2-4.6c-0.7-0.9-1.3-1.7-1.9-2.5
			C179.3,83,153.8,58.5,115,56c-19.4-1.3-34.9,1.4-47.2,6C52,67.8,38.6,78.9,29.7,93.1c0,0-0.1,0.1-0.1,0.1l-13.1,21l18.4-16.5
			C46.4,87.4,62.3,80.8,82.2,78c30.5-4.3,54.7,10.7,59.6,14c0.2,0.1,0.5,0.3,0.8,0.6c0.1,0.1,0.2,0.1,0.3,0.2c1.3,1,3.1,2.5,4.3,4.1
			c-14.1,6-24.1,19.9-24.1,36.2l0,0c0,0.3,0,0.6,0,0.9c0,0.2,0,0.3,0,0.5v0.1c0,2.4,0.3,4.8,0.7,7.1c0,0.1,0,0.2,0,0.2
			c0,0.2,0.1,0.3,0.1,0.5c2.7,13,11.4,23.8,23.2,29.2c4.2-4.5,8.8-9.9,11.1-16c1.5-3.9,1.7-8,0.9-11.5h-3.5c-8.5,0-16-5.7-18.3-13.9
			c-0.4-1.3-1-2.5-1.8-3.5c-0.8-1-1.9-1.9-3-2.5l-6.7-3.6l-0.4-0.2H149c12.1,0,22,9.8,22,22v0.1v34.6c0.9-0.1,1.8-0.1,2.7-0.1
			c10.2,0,19.3,4.7,25.4,12c6-7.3,15.1-12,25.4-12c0.9,0,1.8,0,2.7,0.1v-34.6v-0.1c0-12.1,9.8-22,22-22h23.7l-0.4,0.2l-6.7,3.6
			c-2.4,1.3-4.1,3.5-4.8,6c-1.2,4.1-3.6,7.6-6.8,10c-3.2,2.4-7.2,3.9-11.5,3.9H239c-0.8,3.5-0.5,7.5,0.9,11.5
			c2.3,6.1,6.9,11.5,11.1,16c11.7-5.4,20.5-16.1,23.2-29.1c0.1-0.2,0.1-0.4,0.1-0.7c0-0.1,0-0.2,0-0.2c0.4-2.3,0.7-4.7,0.7-7.1v-0.1
			c0-0.2,0-0.3,0-0.5c0-0.3,0-0.6,0-0.9l0,0c0-16.3-9.9-30.3-24.1-36.2c1.1-1.6,2.9-3.2,4.3-4.1c0.1-0.1,0.2-0.2,0.3-0.2
			c0.3-0.2,0.6-0.4,0.8-0.6c4.9-3.3,29.1-18.3,59.6-14c19.8,2.8,35.7,9.4,47.2,19.7l18.4,16.5L368.5,93.2z"/>
	</g>
</g>
</svg>
